<svg xmlns="http://www.w3.org/2000/svg" width="831.6666666666667" height="831.6666666666667" class="border-solid border-2 graph-view-svg" id="graph-view-svg"><svg><defs><marker id="arrowhead" markerWidth="5" markerHeight="6" refX="5" refY="3.5" orient="auto"><polygon points="0 0, 5 3, 0 6"/></marker></defs><g pointer-events="all"><path d="M 280.1742977001902 350.0562899023579 Q 216.37909059218777 260.2674200498481 152.58388348418535 170.4785501973383" stroke="black" visibility="hidden" stroke-width="13" fill="none"/><path d="M 280.1742977001902 350.0562899023579 Q 251.21781312301502 309.30134696934795 222.26132854583983 268.546404036338" stroke="black" stroke-width="2" fill="none"/><path d="M 210.4968526385357 251.98843606335822 Q 181.5403680613605 211.23349313034828 152.58388348418535 170.4785501973383" stroke="black" stroke-width="2" fill="none" marker-end=""/><text x="216.37909059218777" y="260.2674200498481" text-anchor="middle" alignment-baseline="middle" font-size="16" stroke="white" stroke-width="3" paint-order="stroke fill" pointer-events="none">Air, Rail, Truck</text></g></svg><svg><defs><marker id="arrowhead" markerWidth="5" markerHeight="6" refX="5" refY="3.5" orient="auto"><polygon points="0 0, 5 3, 0 6"/></marker></defs><g pointer-events="all"><path d="M 280.7396286661763 383.05114269797843 Q 218.8835740911739 476.7515763172269 157.02751951617148 570.4520099364754" stroke="black" visibility="hidden" stroke-width="13" fill="none"/><path d="M 280.7396286661763 383.05114269797843 Q 252.61736958692737 425.65114181178177 224.49511050767842 468.2511409255851" stroke="black" stroke-width="2" fill="none"/><path d="M 213.27203767466938 485.2520117088686 Q 185.14977859542043 527.852010822672 157.02751951617148 570.4520099364754" stroke="black" stroke-width="2" fill="none" marker-end=""/><text x="218.8835740911739" y="476.7515763172269" text-anchor="middle" alignment-baseline="middle" font-size="16" stroke="white" stroke-width="3" paint-order="stroke fill" pointer-events="none">Air</text></g></svg><svg><defs><marker id="arrowhead" markerWidth="5" markerHeight="6" refX="5" refY="3.5" orient="auto"><polygon points="0 0, 5 3, 0 6"/></marker></defs><g pointer-events="all"><path d="M 308.41368739264965 355.2878596204563 Q 371.92488780926806 313.06697850244683 435.43608822588646 270.84609738443737" stroke="black" visibility="hidden" stroke-width="13" fill="none"/><path d="M 308.41368739264965 355.2878596204563 Q 336.21074456968455 336.80897339561 364.00780174671945 318.3300871707637" stroke="black" stroke-width="2" fill="none"/><path d="M 379.84197387181655 307.80386983413007 Q 407.6390310488515 289.3249836092837 435.43608822588646 270.84609738443737" stroke="black" stroke-width="2" fill="none" marker-end=""/><text x="371.92488780926806" y="313.06697850244683" text-anchor="middle" alignment-baseline="middle" font-size="16" stroke="white" stroke-width="3" paint-order="stroke fill" pointer-events="none">Air, Sea</text></g></svg><svg><defs><marker id="arrowhead" markerWidth="5" markerHeight="6" refX="5" refY="3.5" orient="auto"><polygon points="0 0, 5 3, 0 6"/></marker></defs><g pointer-events="all"><path d="M 160.9996566264468 154.05756222899856 Q 454.5317562125431 152.33749819674702 748.0638557986393 150.61743416449548" stroke="black" visibility="hidden" stroke-width="13" fill="none"/><path d="M 160.9996566264468 154.05756222899856 Q 302.14853263957747 153.23044619921762 443.29740865270816 152.40333016943669" stroke="black" stroke-width="2" fill="none"/><path d="M 465.766103772378 152.2716662240574 Q 606.9149797855088 151.44455019427645 748.0638557986393 150.61743416449548" stroke="black" stroke-width="2" fill="none" marker-end=""/><text x="454.5317562125431" y="152.33749819674702" text-anchor="middle" alignment-baseline="middle" font-size="16" stroke="white" stroke-width="3" paint-order="stroke fill" pointer-events="none">Air</text></g></svg><svg><defs><marker id="arrowhead" markerWidth="5" markerHeight="6" refX="5" refY="3.5" orient="auto"><polygon points="0 0, 5 3, 0 6"/></marker></defs><g pointer-events="all"><path d="M 141.23136251258765 174.17341963531842 Q 143.5044834989861 370.6589141627765 145.77760448538456 567.1444086902346" stroke="black" visibility="hidden" stroke-width="13" fill="none"/><path d="M 141.23136251258765 174.17341963531842 Q 142.3049261863179 266.9708072806709 143.37848986004818 359.7681949260234" stroke="black" stroke-width="2" fill="none"/><path d="M 143.6304771379241 381.5496333995296 Q 144.70404081165432 474.3470210448821 145.77760448538456 567.1444086902346" stroke="black" stroke-width="2" fill="none" marker-end=""/><text x="143.5044834989861" y="370.6589141627765" text-anchor="middle" alignment-baseline="middle" font-size="16" stroke="white" stroke-width="3" paint-order="stroke fill" pointer-events="none">Air, Truck</text></g></svg><svg><defs><marker id="arrowhead" markerWidth="5" markerHeight="6" refX="5" refY="3.5" orient="auto"><polygon points="0 0, 5 3, 0 6"/></marker></defs><g pointer-events="all"><path d="M 159.93864427707697 160.60342439369572 Q 296.54579721708023 206.97431634799645 433.1529501570835 253.34520830229718" stroke="black" visibility="hidden" stroke-width="13" fill="none"/><path d="M 159.93864427707697 160.60342439369572 Q 223.25239590798444 182.0950891631655 286.56614753889187 203.5867539326353" stroke="black" stroke-width="2" fill="none"/><path d="M 306.5254468952686 210.36187876335754 Q 369.83919852617606 231.85354353282736 433.1529501570835 253.34520830229718" stroke="black" stroke-width="2" fill="none" marker-end=""/><text x="296.54579721708023" y="206.97431634799642" text-anchor="middle" alignment-baseline="middle" font-size="16" stroke="white" stroke-width="3" paint-order="stroke fill" pointer-events="none">Air</text></g></svg><svg><defs><marker id="arrowhead" markerWidth="5" markerHeight="6" refX="5" refY="3.5" orient="auto"><polygon points="0 0, 5 3, 0 6"/></marker></defs><g pointer-events="all"><path d="M 635.0488549441244 351.97793082858595 Q 696.0466254242374 259.5844287410657 757.0443959043505 167.19092665354543" stroke="black" visibility="hidden" stroke-width="13" fill="none"/><path d="M 635.0488549441244 351.97793082858595 Q 662.7478071334054 310.0222465998184 690.4467593226865 268.0665623710508" stroke="black" stroke-width="2" fill="none"/><path d="M 701.6464915257883 251.10229511108062 Q 729.3454437150693 209.146610882313 757.0443959043505 167.19092665354543" stroke="black" stroke-width="2" fill="none" marker-end=""/><text x="696.0466254242374" y="259.5844287410657" text-anchor="middle" alignment-baseline="middle" font-size="16" stroke="white" stroke-width="3" paint-order="stroke fill" pointer-events="none">Air, Rail, Sea, Truck</text></g></svg><svg><defs><marker id="arrowhead" markerWidth="5" markerHeight="6" refX="5" refY="3.5" orient="auto"><polygon points="0 0, 5 3, 0 6"/></marker></defs><g pointer-events="all"><path d="M 607.0224423345658 379.192490883061 Q 537.8911301487602 421.9699594386367 468.75981796295474 464.74742799421244" stroke="black" visibility="hidden" stroke-width="13" fill="none"/><path d="M 607.0224423345658 379.192490883061 Q 576.5515936186443 398.0474168434374 546.0807449027229 416.9023428038139" stroke="black" stroke-width="2" fill="none"/><path d="M 529.7015153947975 427.0375760734595 Q 499.23066667887616 445.89250203383597 468.75981796295474 464.74742799421244" stroke="black" stroke-width="2" fill="none" marker-end=""/><text x="537.8911301487602" y="421.9699594386367" text-anchor="middle" alignment-baseline="middle" font-size="16" stroke="white" stroke-width="3" paint-order="stroke fill" pointer-events="none">Air, Sea</text></g></svg><svg><defs><marker id="arrowhead" markerWidth="5" markerHeight="6" refX="5" refY="3.5" orient="auto"><polygon points="0 0, 5 3, 0 6"/></marker></defs><g pointer-events="all"><path d="M 607.1333829569693 357.9675362373033 Q 538.0606664287745 314.2212468923151 468.9879499005799 270.47495754732694" stroke="black" visibility="hidden" stroke-width="13" fill="none"/><path d="M 607.1333829569693 357.9675362373033 Q 576.6696887722214 338.6737593698591 546.2059945874736 319.379982502415" stroke="black" stroke-width="2" fill="none"/><path d="M 529.9153382700755 309.0625112822153 Q 499.45164408532764 289.76873441477113 468.9879499005799 270.47495754732694" stroke="black" stroke-width="2" fill="none" marker-end=""/><text x="538.0606664287745" y="314.2212468923151" text-anchor="middle" alignment-baseline="middle" font-size="16" stroke="white" stroke-width="3" paint-order="stroke fill" pointer-events="none">Air, Rail, Truck</text></g></svg><svg><defs><marker id="arrowhead" markerWidth="5" markerHeight="6" refX="5" refY="3.5" orient="auto"><polygon points="0 0, 5 3, 0 6"/></marker></defs><g pointer-events="all"><path d="M 756.405243755877 562.9535397245386 Q 695.8482025450278 474.07516360519355 635.2911613341785 385.1967874858485" stroke="black" visibility="hidden" stroke-width="13" fill="none"/><path d="M 756.405243755877 562.9535397245386 Q 728.9753991544942 522.6952973033399 701.5455545531113 482.4370548821412" stroke="black" stroke-width="2" fill="none"/><path d="M 690.1508505369441 465.7132723282459 Q 662.7210059355613 425.4550299070472 635.2911613341785 385.1967874858485" stroke="black" stroke-width="2" fill="none" marker-end=""/><text x="695.8482025450278" y="474.07516360519355" text-anchor="middle" alignment-baseline="middle" font-size="16" stroke="white" stroke-width="3" paint-order="stroke fill" pointer-events="none">Air, Sea</text></g></svg><svg><defs><marker id="arrowhead" markerWidth="5" markerHeight="6" refX="5" refY="3.5" orient="auto"><polygon points="0 0, 5 3, 0 6"/></marker></defs><g pointer-events="all"><path d="M 767.6851684256757 559.4817167842311 Q 767.8650895458765 364.9909733622242 768.0450106660772 170.50022994021734" stroke="black" visibility="hidden" stroke-width="13" fill="none"/><path d="M 767.6851684256757 559.4817167842311 Q 767.7700960119278 467.6768782596275 767.8550235981799 375.8720397350238" stroke="black" stroke-width="2" fill="none"/><path d="M 767.8751554935733 354.10990698942464 Q 767.9600830798253 262.305068464821 768.0450106660772 170.50022994021734" stroke="black" stroke-width="2" fill="none" marker-end=""/><text x="767.8650895458765" y="364.9909733622242" text-anchor="middle" alignment-baseline="middle" font-size="16" stroke="white" stroke-width="3" paint-order="stroke fill" pointer-events="none">Air, Sea</text></g></svg><svg><defs><marker id="arrowhead" markerWidth="5" markerHeight="6" refX="5" refY="3.5" orient="auto"><polygon points="0 0, 5 3, 0 6"/></marker></defs><g pointer-events="all"><path d="M 747.6681853243354 579.728171206174 Q 456.8378168323195 583.3123893282537 166.00744834030363 586.8966074503335" stroke="black" visibility="hidden" stroke-width="13" fill="none"/><path d="M 747.6681853243354 579.728171206174 Q 607.866539558913 581.4510985429825 468.0648937934908 583.1740258797911" stroke="black" stroke-width="2" fill="none"/><path d="M 445.6107398711482 583.4507527767164 Q 305.80909410572593 585.1736801135249 166.00744834030363 586.8966074503335" stroke="black" stroke-width="2" fill="none" marker-end=""/><text x="456.8378168323195" y="583.3123893282537" text-anchor="middle" alignment-baseline="middle" font-size="16" stroke="white" stroke-width="3" paint-order="stroke fill" pointer-events="none">Air, Sea</text></g></svg><svg><defs><marker id="arrowhead" markerWidth="5" markerHeight="6" refX="5" refY="3.5" orient="auto"><polygon points="0 0, 5 3, 0 6"/></marker></defs><g pointer-events="all"><path d="M 164.79113913872212 580.2706611237157 Q 298.880744436052 531.2071851616969 432.97034973338185 482.143709199678" stroke="black" visibility="hidden" stroke-width="13" fill="none"/><path d="M 164.79113913872212 580.2706611237157 Q 226.89357618298416 557.5473380119233 288.99601322724624 534.8240149001309" stroke="black" stroke-width="2" fill="none"/><path d="M 308.76547564485776 527.5903554232628 Q 370.8679126891198 504.8670323114705 432.97034973338185 482.143709199678" stroke="black" stroke-width="2" fill="none" marker-end=""/><text x="298.880744436052" y="531.2071851616969" text-anchor="middle" alignment-baseline="middle" font-size="16" stroke="white" stroke-width="3" paint-order="stroke fill" pointer-events="none">Air, Sea</text></g></svg><svg><defs><marker id="arrowhead" markerWidth="5" markerHeight="6" refX="5" refY="3.5" orient="auto"><polygon points="0 0, 5 3, 0 6"/></marker></defs><g pointer-events="all"><path d="M 451.78399066223074 455.2713246503693 Q 451.92205815414616 367.5225873469168 452.0601256460616 279.7738500434643" stroke="black" visibility="hidden" stroke-width="13" fill="none"/><path d="M 451.78399066223074 455.2713246503693 Q 451.8453361128347 416.2832489264799 451.9066815634386 377.29517320259055" stroke="black" stroke-width="2" fill="none"/><path d="M 451.9374347448537 357.7500014912429 Q 451.99878019545764 318.7619257673536 452.0601256460616 279.7738500434643" stroke="black" stroke-width="2" fill="none" marker-end=""/><text x="451.92205815414616" y="367.5225873469168" text-anchor="middle" alignment-baseline="middle" font-size="16" stroke="white" stroke-width="3" paint-order="stroke fill" pointer-events="none">Air, Sea</text></g></svg><svg><defs><marker id="arrowhead" markerWidth="5" markerHeight="6" refX="5" refY="3.5" orient="auto"><polygon points="0 0, 5 3, 0 6"/></marker></defs><g pointer-events="all"><path d="M 470.74583292877014 481.53661195104934 Q 609.7095942703993 527.3765040597953 748.6733556120283 573.2163961685411" stroke="black" visibility="hidden" stroke-width="13" fill="none"/><path d="M 470.74583292877014 481.53661195104934 Q 535.2148669360381 502.8029733010636 599.683900943306 524.0693346510778" stroke="black" stroke-width="2" fill="none"/><path d="M 619.7352875974926 530.6836734685124 Q 684.2043216047605 551.9500348185268 748.6733556120283 573.2163961685411" stroke="black" stroke-width="2" fill="none" marker-end=""/><text x="609.7095942703993" y="527.3765040597953" text-anchor="middle" alignment-baseline="middle" font-size="16" stroke="white" stroke-width="3" paint-order="stroke fill" pointer-events="none">Air, Sea</text></g></svg><g class="react-draggable react-draggable-dragged" style="" transform="translate(291.7581811843756,366.36008220429846)"><circle r="20" stroke-width="4" stroke="black" fill="white"/><text text-anchor="middle" alignment-baseline="middle" class="select-none" font-weight="normal"> Toronto 0</text></g><g class="react-draggable react-draggable-dragged" style="" transform="translate(141,154.1747578953977)"><circle r="20" stroke-width="4" stroke="black" fill="white"/><text text-anchor="middle" alignment-baseline="middle" class="select-none" font-weight="normal"> Houston 1</text></g><g class="react-draggable react-draggable-dragged" style="" transform="translate(624.0297384233887,368.66861898403505)"><circle r="20" stroke-width="4" stroke="black" fill="white"/><text text-anchor="middle" alignment-baseline="middle" class="select-none" font-weight="normal"> Mumbai 2</text></g><g class="react-draggable react-draggable-dragged" style="" transform="translate(768.0635124250862,150.50023849809634)"><circle r="20" stroke-width="4" stroke="black" fill="white"/><text text-anchor="middle" alignment-baseline="middle" class="select-none" font-weight="normal"> Shanghai 3</text></g><g class="react-draggable react-draggable-dragged" style="" transform="translate(767.6666666666667,579.4817082263521)"><circle r="20" stroke-width="4" stroke="black" fill="white"/><text text-anchor="middle" alignment-baseline="middle" class="select-none" font-weight="normal"> Sydney 4</text></g><g class="react-draggable react-draggable-dragged" style="" transform="translate(146.0089669979722,587.1430704301554)"><circle r="20" stroke-width="4" stroke="black" fill="white"/><text text-anchor="middle" alignment-baseline="middle" class="select-none" font-weight="normal"> Rio de Janeiro 5</text></g><g class="react-draggable react-draggable-dragged" style="" transform="translate(451.7525218741318,475.2712998932384)"><circle r="20" stroke-width="4" stroke="black" fill="white"/><text text-anchor="middle" alignment-baseline="middle" class="select-none" font-weight="normal"> Cairo 6</text></g><g class="react-draggable react-draggable-dragged" style="" transform="translate(452.0915944341605,259.7738748005952)"><circle r="20" stroke-width="4" stroke="black" fill="white"/><text text-anchor="middle" alignment-baseline="middle" class="select-none" font-weight="normal"> Berlin 7</text></g></svg>